<svg width="35" height="35" fill="none" viewBox="0 0 27 27" 
xmlns="http://www.w3.org/2000/svg">
<path d="M12.3 12a.3.3 0 0 0-.3.3v.4a.3.3 0 0 0 .3.3h7.4a.3.3 0 0 0 .3-.3v-.4a.3.3 0 0 0-.3-.3h-7.4ZM12 20.3a.3.3 0 0 1 .3-.3h7.4a.3.3 0 0 1 .3.3v.4a.3.3 0 0 1-.3.3h-7.4a.3.3 0 0 1-.3-.3v-.4ZM12.3 16a.3.3 0 0 0-.3.3v.4a.3.3 0 0 0 .3.3h7.4a.3.3 0 0 0 .3-.3v-.4a.3.3 0 0 0-.3-.3h-7.4Z" fill="#ffffff" class="fill-000000"></path>
<path clip-rule="evenodd" d="M23.5 5H21V2.375C21 1.615 20.396 1 19.65 1H4.35C3.604 1 3 1.616 3 2.375v19.25C3 22.385 3.604 23 4.35 23H7v2.5A1.5 1.5 0 0 0 8.5 27h15a1.5 1.5 0 0 0 1.5-1.5v-19A1.5 1.5 0 0 0 23.5 5ZM4.8 3.833a1 1 0 0 1 1-1h12.4a1 1 0 0 1 1 1V5H8.5A1.5 1.5 0 0 0 7 6.5v14.667H5.8a1 1 0 0 1-1-1V3.833ZM10 7a1 1 0 0 0-1 1v16a1 1 0 0 0 1 1h12a1 1 0 0 0 1-1V8a1 1 0 0 0-1-1H10Z" fill="#ffffff" fill-rule="evenodd" class="fill-000000">
</path>
</svg>